<svg xmlns="http://www.w3.org/2000/svg"
     version="1.1"
     viewBox="0 0 64 64">
  <g fill="currentColor">
    <path d="M44.8451996,18.5058994h-8c-0.5527,0,-1,0.4473,-1,1s0.4473,1,1,1h5.5859985l-10,10.001l1.4141006,1.4139996l10,-10.0008011v5.585c0,0.5527992,0.4473,1,1,1s1,-0.4472008,1,-1v-7.9990005c0,-0.553,-0.447,-1,-1,-1z"/>
    <path d="M22.3178005,42.0918007l-11.473,11.473v-6.0585976c0,-0.5527,-0.4473,-1,-1,-1s-1,0.4473,-1,1v7.9990005c0,0.5527992,0.4473,1,1,1h8c0.5527,0,1,-0.4472008,1,-1c0,-0.5527,-0.4473,-1,-1,-1h-5.1122999l10.9989996,-10.9990005l-1.414,-1.414z"/>
    <path d="M57.3041992,0h-40.516c-3.294,0,-5.974,2.681,-5.974,5.975v4.1181002h-4.119c-3.2939,0,-5.9735999,2.6807003,-5.9735999,5.9745998v41.9580002c0,3.294,2.679,5.974,5.973,5.974h40.5165977c3.2938995,0,5.9746017,-2.6805992,5.9746017,-5.9746017v-2.6766968h4.1181984c3.2938995,0,5.9746017,-2.6807022,5.9746017,-5.9746017v-43.399c0,-3.294,-2.68,-5.975,-5.974,-5.975zm-6.118,58.025c0,2.192,-1.783,3.975,-3.975,3.975h-40.516c-2.192,0,-3.974,-1.783,-3.974,-3.975v-41.958c0,-2.1913996,1.7821999,-3.9745998,3.9735999,-3.9745998h40.5165977c2.1914024,0,3.9746017,1.7832003,3.9746017,3.9745998v41.958zm10.093,-8.651c0,2.1913986,-1.7831993,3.9746017,-3.9746017,3.9746017h-4.1181984v-37.282c0,-3.2938995,-2.6807022,-5.9745998,-5.9746017,-5.9745998h-34.398v-4.118c0,-2.191,1.784,-3.974,3.975,-3.974h40.5157013c2.1914024,0,3.9746017,1.7832999,3.9746017,3.9747v43.399z"/>
  </g>
</svg>
