<svg xmlns="http://www.w3.org/2000/svg" 
     version="1.1"
     viewBox="0 0 120 120">
  <g fill="#000000" transform="translate(3.25,5.25)">
    <path d="M10,55.5 c-1,-31 2,-35 13,-35 7,0  41,0  41,0 v-18 l23,24  -22,22  v-17  h-45 v25  c0,0 -4,0 -10,0 z" />
    <path d="M90,44.5 c0,23   2,36 -13,36 -1,0 -42,0 -42,0 v17  l-22,-23 22,-22 -1,18 h45  v-26 c0,0  9,0  10,0 z" />
    <g transform="translate(-17.5,-10) scale(1.2)">
      <rect x="60.5" y="57" width="40" height="40" ry="8" fill="#ffffff" stroke="#222222" stroke-width="0.9" />

      <!-- 3 -->
      <g transform="translate(70.96,88.6) scale(2.975)">
        <path fill="#000000" stroke="#000000" stroke-width="0.25"
              d="M3.15,-4.69l-0.83,0l0,1.2l0.83,0q0.32,0,0.57,0.07q0.25,0.07,0.43,0.22l0,0q0.18,0.15,0.27,0.38q0.09,0.23,0.09,0.55l0,0q0,0.26,-0.08,0.47q-0.08,0.21,-0.23,0.36l0,0q-0.16,0.16,-0.4,0.24q-0.23,0.08,-0.53,0.08l0,0q-0.27,0,-0.49,-0.08q-0.22,-0.08,-0.38,-0.22l0,0q-0.16,-0.14,-0.25,-0.34q-0.09,-0.19,-0.09,-0.42l0,0l-1.53,0q0,0.58,0.23,1.01q0.23,0.43,0.61,0.71l0,0q0.38,0.29,0.87,0.43q0.48,0.14,1,0.14l0,0q0.59,0,1.11,-0.16q0.51,-0.15,0.89,-0.46l0,0q0.37,-0.29,0.59,-0.74q0.21,-0.44,0.21,-1l0,0q0,-0.32,-0.08,-0.61q-0.07,-0.28,-0.23,-0.52l0,0q-0.16,-0.24,-0.41,-0.43q-0.24,-0.19,-0.58,-0.31l0,0q0.29,-0.14,0.51,-0.33q0.22,-0.19,0.37,-0.41l0,0q0.15,-0.23,0.22,-0.48q0.08,-0.25,0.08,-0.51l0,0q0,-0.56,-0.2,-0.99q-0.19,-0.43,-0.54,-0.72l0,0q-0.36,-0.28,-0.85,-0.43q-0.5,-0.15,-1.09,-0.15l0,0q-0.56,0,-1.03,0.16q-0.48,0.16,-0.83,0.45l0,0q-0.35,0.29,-0.56,0.69q-0.2,0.41,-0.2,0.9l0,0l1.54,0q0,-0.22,0.08,-0.4q0.09,-0.18,0.25,-0.3l0,0q0.14,-0.12,0.35,-0.19q0.2,-0.07,0.43,-0.07l0,0q0.28,0,0.49,0.08q0.21,0.08,0.35,0.22l0,0q0.14,0.14,0.21,0.34q0.07,0.19,0.07,0.43l0,0q0,0.24,-0.07,0.45q-0.07,0.2,-0.21,0.35l0,0q-0.15,0.16,-0.39,0.25q-0.24,0.09,-0.57,0.09l0,0z"/>
      </g>
    </g>
  </g>
</svg>
