<svg xmlns="http://www.w3.org/2000/svg" 
     version="1.1"
     width="120"
     height="120"
     viewBox="0 0 120 120">
  <g fill="#000000" stroke="#000000">
    <path d="M13.25,60.75 c -1,-31 2,-35 13,-35 7,0 41,0 41,0 v -18 l 23,24 -22,22 v -17 h -45 v 25 c 0,0 -4,0 -10,0 z" />
    <path d="M82.25,49.75 V 63.650391 H 93.324219 C 93.338288,59.520224 93.25,54.928125 93.25,49.75 h -1 z m -44,8 -22,22 22,23 v -17 h 20.099609 v -10 H 37.25 Z" />
    <path d="m 74.1616,80.908066 h -2.86145 v 4.137035 h 2.86145 q 1.103209,0 1.965091,0.241327 0.861883,0.241327 1.482438,0.758456 v 0 q 0.620555,0.51713 0.930833,1.310062 0.310278,0.792931 0.310278,1.896141 v 0 q 0,0.896357 -0.275803,1.620339 -0.275802,0.723981 -0.792932,1.24111 v 0 q -0.551604,0.551605 -1.379011,0.827407 -0.792932,0.275803 -1.827191,0.275803 v 0 q -0.930833,0 -1.689289,-0.275803 -0.758457,-0.275802 -1.310062,-0.758456 v 0 q -0.551604,-0.482654 -0.861882,-1.17216 -0.310278,-0.655031 -0.310278,-1.447963 v 0 h -5.27472 q 0,1.999568 0.792932,3.482005 0.792932,1.482438 2.102993,2.447746 v 0 q 1.310061,0.999784 2.999351,1.482438 1.654814,0.482654 3.447529,0.482654 v 0 q 2.034043,0 3.826758,-0.551605 1.75824,-0.517129 3.068301,-1.585863 v 0 q 1.275586,-0.999784 2.034042,-2.551172 0.723982,-1.516913 0.723982,-3.44753 v 0 q 0,-1.103209 -0.275803,-2.102993 -0.241327,-0.965308 -0.792932,-1.792715 v 0 q -0.551604,-0.827407 -1.413487,-1.482437 -0.827407,-0.655031 -1.999567,-1.068735 v 0 q 0.999784,-0.482654 1.75824,-1.137684 0.758457,-0.655031 1.275586,-1.413487 v 0 q 0.51713,-0.792932 0.758457,-1.654814 0.275802,-0.861883 0.275802,-1.75824 v 0 q 0,-1.930617 -0.689506,-3.413055 -0.65503,-1.482437 -1.861666,-2.482221 v 0 q -1.24111,-0.965308 -2.9304,-1.482437 -1.723764,-0.51713 -3.757807,-0.51713 v 0 q -1.930616,0 -3.550955,0.551605 -1.654814,0.551605 -2.86145,1.551388 v 0 q -1.206635,0.999784 -1.930616,2.378795 -0.689506,1.413487 -0.689506,3.102777 v 0 h 5.309195 q 0,-0.758457 0.275803,-1.379012 0.310277,-0.620555 0.861882,-1.034259 v 0 q 0.482654,-0.413703 1.206635,-0.65503 0.689506,-0.241327 1.482438,-0.241327 v 0 q 0.965308,0 1.689289,0.275802 0.723982,0.275802 1.206636,0.758456 v 0 q 0.482654,0.482655 0.723981,1.17216 0.241327,0.655031 0.241327,1.482438 v 0 q 0,0.827407 -0.241327,1.551388 -0.241327,0.689506 -0.723981,1.206636 v 0 q -0.51713,0.551604 -1.344537,0.861882 -0.827407,0.310278 -1.965091,0.310278 z"
    stroke-width="0.861882" />
  </g>
</svg>
