<svg xmlns="http://www.w3.org/2000/svg"
     version="1.1"
     width="450.261"
     height="450.261"
     viewBox="0 0 450.261 450.261">
  <g>
    <path d="M 375.404,428.261 293.601,35.776 C 288.449,11.063 267.788,0 249.598,0 231.408,0 210.746,11.063 205.595,35.776 L 171.38713,200.05771 154.09927,180.01987 160.418,174.643 136.9,136.017 128.61278,141.6766 86.073536,84.590976 72.441732,94.63789 l 42.138868,56.68524 -8.6896,8.07487 30.664,33.237 5.52398,-4.98149 25.53164,30.44838 L 123.791,428.261 h 20.307 v 22 h 29 v -22 h 153 v 22 h 29 v -22 z m -136.164,-202 h 10.8 v -8 h -10.8 v -13.429 h 10.8 v -8 h -10.8 v -13.429 h 10.8 v -8 h -10.8 v -13.429 h 10.8 v -8 h -10.8 v -13.428 h 10.8 v -8 h -10.8 v -13.429 h 10.8 v -8 h -10.8 V 97.689 h 10.8 v -8 h -10.8 V 76.261 h 10.8 v -8 h -10.8 v -12 h 21 v 184 h -21 z m 0,22 h 21 v 37.92 h -21 z m -8,-200 v 237.92 l 1.80189,-8.44994 -42.25338,-55.359 L 229.944,35.239 h 39.314 l 52.293,250.942 H 268.24 V 48.261 Z m -10.238,237.92 h -43.361 l 9.371,-44.961 z"/>
  </g>
</svg>