<svg xmlns="http://www.w3.org/2000/svg"
     xmlns:svg="http://www.w3.org/2000/svg"
     version="1.1"
     width="13.04"
     height="33.84"
     viewBox="0 0 13.04 33.84">
  <defs>
    <path id="18" d="M2.03,-3.93l-1.62,3.71q0,0,-0.04,0.07l0,0q-0.03,0.07,-0.03,0.15l0,0q0,0.07,0.05,0.14l0,0q0.03,0.06,0.13,0.1l0,0q0.06,0.01,0.11,0.01l0,0q0.03,0.02,0.05,0.02l0,0q0.12,-0.02,0.18,-0.08l0,0q0.05,-0.05,0.05,-0.07l0,0q0.04,-0.07,0.39,-0.63l0,0q0.34,-0.56,0.53,-0.86l0,0q0.05,-0.09,0.1,-0.14l0,0q0.03,-0.03,0.07,-0.03l0,0q0.05,0,0.08,0.08l0,0q0.02,0.07,0.02,0.16l0,0l0,4.36q-0.02,0.29,-0.24,0.48l0,0q-0.22,0.17,-0.51,0.17l0,0q-0.1,0,-0.18,0.05l0,0q-0.1,0.05,-0.1,0.2l0,0q0,0.14,0.1,0.21l0,0q0.1,0.06,0.27,0.06l0,0l3.61,0q0.2,-0.01,0.23,-0.13l0,0q0.05,-0.12,0.04,-0.14l0,0q0,-0.01,-0.04,-0.13l0,0q-0.03,-0.1,-0.22,-0.12l0,0q-0.18,-0.02,-0.35,-0.19l0,0q-0.17,-0.18,-0.19,-0.4l0,0l0,-6.98q0,-0.2,-0.08,-0.29l0,0q-0.09,-0.08,-0.26,-0.1l0,0q-0.18,0,-0.44,0.03l0,0q-0.27,0.04,-0.44,0.04l0,0q-0.49,0,-0.88,-0.05l0,0q-0.03,0,-0.05,-0.02l0,0q-0.02,0,-0.03,0l0,0q-0.12,0,-0.19,0.1l0,0q-0.07,0.1,-0.12,0.22l0,0zm9.28,3.32l0,0q0.46,-0.29,0.75,-0.73l0,0q0.27,-0.44,0.27,-1.06l0,0q-0.14,-1.26,-1.31,-1.65l0,0q-1.15,-0.37,-1.64,-0.34l0,0q-1.49,0.02,-2.39,0.63l0,0q-0.89,0.61,-0.91,1.69l0,0q0.02,0.87,0.44,1.39l0,0q0.41,0.53,1.03,0.87l0,0q-0.68,0.3,-1.1,0.78l0,0q-0.44,0.47,-0.46,1.27l0,0q0.06,1.1,0.97,1.62l0,0q0.93,0.53,2.23,0.53l0,0q1.34,0.03,2.39,-0.65l0,0q1.05,-0.68,1.12,-2.37l0,0q-0.02,-0.74,-0.39,-1.22l0,0q-0.39,-0.47,-1,-0.76l0,0zm-0.88,-0.39l0,0q-1.07,-0.32,-1.9,-0.69l0,0q-0.84,-0.38,-0.89,-1.14l0,0q0.03,-0.54,0.57,-0.79l0,0q0.54,-0.27,1.14,-0.27l0,0q0.47,-0.02,1.2,0.28l0,0q0.71,0.31,0.78,1.17l0,0q0,0.51,-0.24,0.85l0,0q-0.24,0.35,-0.66,0.59l0,0zm-1.3,4.83l0,0q-0.88,0,-1.51,-0.43l0,0q-0.63,-0.42,-0.66,-1.25l0,0q0.02,-0.52,0.39,-0.95l0,0q0.37,-0.42,0.95,-0.64l0,0q0.96,0.37,1.71,0.79l0,0q0.74,0.41,0.78,1.22l0,0q0,0.53,-0.41,0.88l0,0q-0.41,0.36,-1.25,0.38l0,0z"/>
  </defs>
  <g transform="translate(0,25.38)">
    <use href="#18" fill="#222222" transform="translate(0,-12.69)"/>
  </g>
</svg>
