<svg xmlns="http://www.w3.org/2000/svg"
     xmlns:svg="http://www.w3.org/2000/svg"
     version="1.1"
     width="15.51"
     height="33.84"
     viewBox="0 0 15.51 33.84">
  <defs>
    <path id="24" d="M7.13,1.54l0,0q0,-0.15,-0.05,-0.2l0,0q-0.07,-0.04,-0.15,-0.04l0,0q-0.11,0,-0.16,0.05l0,0q-0.05,0.06,-0.06,0.14l0,0l-0.02,0.02q-0.12,0.32,-0.26,0.52l0,0q-0.15,0.22,-0.4,0.22l0,0q-0.12,0,-0.29,-0.05l0,0q-0.15,-0.07,-0.27,-0.1l0,0q-0.12,-0.03,-0.24,-0.08l0,0q-0.27,-0.12,-0.78,-0.26l0,0q-0.5,-0.13,-1.05,-0.15l0,0q-0.34,0,-0.62,0.1l0,0q0.34,-0.47,1.1,-0.8l0,0q0.74,-0.33,1.08,-0.42l0,0q0.92,-0.22,1.58,-0.71l0,0q0.64,-0.47,0.67,-1.51l0,0q-0.06,-1.33,-1.08,-1.96l0,0q-1.02,-0.61,-2.25,-0.61l0,0q-0.9,-0.02,-1.66,0.17l0,0q-0.78,0.2,-1.41,0.9l0,0q-0.22,0.27,-0.34,0.57l0,0q-0.13,0.32,-0.13,0.66l0,0q0,0.36,0.15,0.73l0,0q0.2,0.41,0.56,0.66l0,0q0.37,0.25,0.83,0.27l0,0q0.74,-0.05,0.98,-0.59l0,0q0.22,-0.53,0.2,-0.9l0,0q-0.06,-0.73,-0.57,-0.96l0,0q-0.53,-0.22,-0.59,-0.44l0,0q0.01,-0.21,0.3,-0.41l0,0q0.31,-0.22,1.03,-0.24l0,0q1.09,0.05,1.33,0.63l0,0q0.25,0.57,0.2,1l0,0q-0.04,1.15,-0.78,2.03l0,0q-0.76,0.86,-1.71,1.42l0,0q-0.7,0.44,-1.19,1.07l0,0q-0.47,0.63,-0.69,1.46l0,0l-0.02,0.05q0,0.18,0.12,0.37l0,0q0.14,0.18,0.32,0.2l0,0q0.26,-0.07,0.56,-0.52l0,0q0.31,-0.44,1.02,-0.51l0,0q0.45,0.05,0.91,0.46l0,0q0.44,0.4,1.53,0.45l0,0q0.59,0.09,1.32,-0.35l0,0q0.72,-0.44,0.98,-2.34l0,0zm7.79,-0.29l-1.24,0l0,-3.62q0,-0.1,-0.03,-0.2l0,0q-0.04,-0.09,-0.17,-0.09l0,0q-0.12,0,-0.19,0.04l0,0q-0.08,0.03,-0.15,0.11l0,0l-1.61,1.95q-0.05,0.07,-0.1,0.15l0,0q-0.05,0.09,-0.05,0.24l0,0l0,1.42l-2.29,0q1.14,-1.06,2.54,-2.96l0,0q1.41,-1.88,1.58,-2.24l0,0l0.01,-0.05q0,-0.11,-0.06,-0.18l0,0q-0.09,-0.07,-0.19,-0.07l0,0q-0.13,0,-0.52,0.02l0,0q-0.38,0.01,-0.63,0.01l0,0q-0.25,0,-0.66,-0.01l0,0q-0.41,-0.02,-0.54,-0.02l0,0q-0.12,0,-0.26,0.05l0,0q-0.12,0.07,-0.13,0.27l0,0q-0.09,1.63,-0.9,3.1l0,0q-0.8,1.47,-1.27,2.07l0,0l-0.1,0.13q0,0,0,0.02l0,0l-0.02,0.02q-0.05,0.11,-0.05,0.2l0,0q0,0.13,0.1,0.2l0,0q0.09,0.09,0.24,0.09l0,0l3.15,0l0,1.06q-0.02,0.34,-0.22,0.48l0,0q-0.22,0.12,-0.46,0.12l0,0q-0.2,0,-0.29,0.1l0,0q-0.1,0.08,-0.1,0.22l0,0q0,0.13,0.07,0.23l0,0q0.07,0.12,0.25,0.12l0,0l3.61,0q0.14,0,0.24,-0.08l0,0q0.1,-0.1,0.1,-0.27l0,0q0,-0.17,-0.12,-0.26l0,0q-0.12,-0.08,-0.25,-0.08l0,0q-0.14,0.02,-0.32,-0.12l0,0q-0.19,-0.13,-0.21,-0.52l0,0l0,-1l1.24,0q0.25,-0.02,0.25,-0.33l0,0q0,-0.15,-0.05,-0.23l0,0q-0.07,-0.09,-0.2,-0.09l0,0z"/>
  </defs>
  <g transform="translate(0,25.38)">
    <use href="#24" fill="#222222" transform="translate(0,-12.69)"/>
  </g>
</svg>